{
  "asset": {
    "version": "2.0",
    "generator": "Sketchup glTF Exporter by Evan Prananta."
  },
  "scene": 0,
  "scenes": [
    {
      "nodes": [
        0
      ]
    }
  ],
  "samplers": [
    {
    }
  ],
  "nodes": [
    {
      "name": "root",
      "mesh": 0
    }
  ],
  "materials": [
    {
      "pbrMetallicRoughness": {
        "baseColorFactor": [
          0.6121,
          0.6121,
          0.6121,
          1.0
        ],
        "metallicFactor": 0.1,
        "roughnessFactor": 0.5
      },
      "name": "default material",
      "doubleSided": true
    },
    {
      "pbrMetallicRoughness": {
        "baseColorFactor": [
          0.0254,
          0.0759,
          0.0638,
          1.0
        ],
        "metallicFactor": 0.1,
        "roughnessFactor": 0.9
      },
      "name": "Heather_Shirt",
      "doubleSided": true
    },
    {
      "pbrMetallicRoughness": {
        "baseColorFactor": [
          0.0189,
          0.0759,
          0.187,
          1.0
        ],
        "metallicFactor": 0.1,
        "roughnessFactor": 0.9
      },
      "name": "Heather_PantShadow",
      "doubleSided": true
    },
    {
      "pbrMetallicRoughness": {
        "baseColorFactor": [
          0.2674,
          0.231,
          0.1905,
          1.0
        ],
        "metallicFactor": 0.1,
        "roughnessFactor": 0.9
      },
      "name": "Heather_Band",
      "doubleSided": true
    },
    {
      "pbrMetallicRoughness": {
        "baseColorFactor": [
          0.1193,
          0.1636,
          0.0939,
          1.0
        ],
        "metallicFactor": 0.1,
        "roughnessFactor": 0.9
      },
      "name": "Heather_Stripe1",
      "doubleSided": true
    },
    {
      "pbrMetallicRoughness": {
        "baseColorFactor": [
          0.325,
          0.0802,
          0.1701,
          1.0
        ],
        "metallicFactor": 0.1,
        "roughnessFactor": 0.9
      },
      "name": "Heather_Stripe2",
      "doubleSided": true
    },
    {
      "pbrMetallicRoughness": {
        "baseColorFactor": [
          0.3537,
          0.1734,
          0.021,
          1.0
        ],
        "metallicFactor": 0.1,
        "roughnessFactor": 0.9
      },
      "name": "Heather_Hair",
      "doubleSided": true
    },
    {
      "pbrMetallicRoughness": {
        "baseColorFactor": [
          0.009,
          0.009,
          0.009,
          1.0
        ],
        "metallicFactor": 0.1,
        "roughnessFactor": 0.9
      },
      "name": "Heather_Soles",
      "doubleSided": true
    },
    {
      "pbrMetallicRoughness": {
        "baseColorFactor": [
          0.0915,
          0.1801,
          0.2977,
          1.0
        ],
        "metallicFactor": 0.1,
        "roughnessFactor": 0.9
      },
      "name": "Heather_Jeans",
      "doubleSided": true
    },
    {
      "pbrMetallicRoughness": {
        "baseColorFactor": [
          0.3345,
          0.3021,
          0.187,
          1.0
        ],
        "metallicFactor": 0.1,
        "roughnessFactor": 0.9
      },
      "name": "Heather_Hat",
      "doubleSided": true
    },
    {
      "pbrMetallicRoughness": {
        "baseColorFactor": [
          0.1604,
          0.212,
          0.2549,
          1.0
        ],
        "metallicFactor": 0.1,
        "roughnessFactor": 0.9
      },
      "name": "Heather_Cuffs",
      "doubleSided": true
    },
    {
      "pbrMetallicRoughness": {
        "baseColorFactor": [
          0.148,
          0.06,
          0.0528,
          1.0
        ],
        "metallicFactor": 0.1,
        "roughnessFactor": 0.9
      },
      "name": "Heather_Shoes",
      "doubleSided": true
    },
    {
      "pbrMetallicRoughness": {
        "baseColorFactor": [
          0.1247,
          0.0546,
          0.0179,
          1.0
        ],
        "metallicFactor": 0.1,
        "roughnessFactor": 0.9
      },
      "name": "Heather_Brim",
      "doubleSided": true
    },
    {
      "pbrMetallicRoughness": {
        "baseColorFactor": [
          0.3587,
          0.1768,
          0.021,
          1.0
        ],
        "metallicFactor": 0.1,
        "roughnessFactor": 0.9
      },
      "name": "Heather_Hair2",
      "doubleSided": true
    },
    {
      "pbrMetallicRoughness": {
        "baseColorFactor": [
          0.0199,
          0.022,
          0.0119,
          1.0
        ],
        "metallicFactor": 0.1,
        "roughnessFactor": 0.9
      },
      "name": "Heather_ShirtShadow",
      "doubleSided": true
    },
    {
      "pbrMetallicRoughness": {
        "baseColorFactor": [
          0.7893,
          0.3345,
          0.194,
          1.0
        ],
        "metallicFactor": 0.1,
        "roughnessFactor": 0.9
      },
      "name": "Heather_Skin",
      "doubleSided": true
    },
    {
      "pbrMetallicRoughness": {
        "baseColorFactor": [
          0.6121,
          0.3889,
          0.1542,
          1.0
        ],
        "metallicFactor": 0.1,
        "roughnessFactor": 0.9
      },
      "name": "Lily_Blonde",
      "doubleSided": true
    },
    {
      "pbrMetallicRoughness": {
        "baseColorFactor": [
          0.9323,
          0.9323,
          0.5668,
          1.0
        ],
        "metallicFactor": 0.1,
        "roughnessFactor": 0.9
      },
      "name": "Lily_Light",
      "doubleSided": true
    },
    {
      "pbrMetallicRoughness": {
        "baseColorFactor": [
          0.0546,
          0.0189,
          0.0152,
          1.0
        ],
        "metallicFactor": 0.1,
        "roughnessFactor": 0.9
      },
      "name": "Lily_Dark",
      "doubleSided": true
    },
    {
      "pbrMetallicRoughness": {
        "baseColorFactor": [
          0.0638,
          0.0278,
          0.0097,
          1.0
        ],
        "metallicFactor": 0.1,
        "roughnessFactor": 0.9
      },
      "name": "Heather_Brim1",
      "doubleSided": true
    }
  ],
  "meshes": [
    {
      "primitives": [
        {
          "attributes": {
            "POSITION": 0,
            "NORMAL": 1
          },
          "indices": 2,
          "mode": 4,
          "material": 0
        },
        {
          "attributes": {
            "POSITION": 0,
            "NORMAL": 1
          },
          "indices": 3,
          "mode": 4,
          "material": 1
        },
        {
          "attributes": {
            "POSITION": 0,
            "NORMAL": 1
          },
          "indices": 4,
          "mode": 4,
          "material": 2
        },
        {
          "attributes": {
            "POSITION": 0,
            "NORMAL": 1
          },
          "indices": 5,
          "mode": 4,
          "material": 3
        },
        {
          "attributes": {
            "POSITION": 0,
            "NORMAL": 1
          },
          "indices": 6,
          "mode": 4,
          "material": 4
        },
        {
          "attributes": {
            "POSITION": 0,
            "NORMAL": 1
          },
          "indices": 7,
          "mode": 4,
          "material": 5
        },
        {
          "attributes": {
            "POSITION": 0,
            "NORMAL": 1
          },
          "indices": 8,
          "mode": 4,
          "material": 6
        },
        {
          "attributes": {
            "POSITION": 0,
            "NORMAL": 1
          },
          "indices": 9,
          "mode": 4,
          "material": 7
        },
        {
          "attributes": {
            "POSITION": 0,
            "NORMAL": 1
          },
          "indices": 10,
          "mode": 4,
          "material": 8
        },
        {
          "attributes": {
            "POSITION": 0,
            "NORMAL": 1
          },
          "indices": 11,
          "mode": 4,
          "material": 9
        },
        {
          "attributes": {
            "POSITION": 0,
            "NORMAL": 1
          },
          "indices": 12,
          "mode": 4,
          "material": 10
        },
        {
          "attributes": {
            "POSITION": 0,
            "NORMAL": 1
          },
          "indices": 13,
          "mode": 4,
          "material": 11
        },
        {
          "attributes": {
            "POSITION": 0,
            "NORMAL": 1
          },
          "indices": 14,
          "mode": 4,
          "material": 12
        },
        {
          "attributes": {
            "POSITION": 0,
            "NORMAL": 1
          },
          "indices": 15,
          "mode": 4,
          "material": 13
        },
        {
          "attributes": {
            "POSITION": 0,
            "NORMAL": 1
          },
          "indices": 16,
          "mode": 4,
          "material": 14
        },
        {
          "attributes": {
            "POSITION": 0,
            "NORMAL": 1
          },
          "indices": 17,
          "mode": 4,
          "material": 15
        },
        {
          "attributes": {
            "POSITION": 0,
            "NORMAL": 1
          },
          "indices": 18,
          "mode": 4,
          "material": 16
        },
        {
          "attributes": {
            "POSITION": 0,
            "NORMAL": 1
          },
          "indices": 19,
          "mode": 4,
          "material": 17
        },
        {
          "attributes": {
            "POSITION": 0,
            "NORMAL": 1
          },
          "indices": 20,
          "mode": 4,
          "material": 18
        },
        {
          "attributes": {
            "POSITION": 0,
            "NORMAL": 1
          },
          "indices": 21,
          "mode": 4,
          "material": 19
        }
      ]
    }
  ],
  "accessors": [
    {
      "bufferView": 0,
      "componentType": 5126,
      "count": 1411,
      "type": "VEC3",
      "min": [
        -0.6446188289750377,
        -0.0929815339276665,
        -0.21431249999999974
      ],
      "max": [
        0.00016552271035506652,
        1.6256,
        0.8067146993800446
      ]
    },
    {
      "bufferView": 1,
      "componentType": 5126,
      "count": 1411,
      "type": "VEC3"
    },
    {
      "bufferView": 2,
      "componentType": 5123,
      "count": 36,
      "type": "SCALAR"
    },
    {
      "bufferView": 2,
      "componentType": 5123,
      "count": 489,
      "type": "SCALAR",
      "byteOffset": 72
    },
    {
      "bufferView": 2,
      "componentType": 5123,
      "count": 48,
      "type": "SCALAR",
      "byteOffset": 1050
    },
    {
      "bufferView": 2,
      "componentType": 5123,
      "count": 258,
      "type": "SCALAR",
      "byteOffset": 1146
    },
    {
      "bufferView": 2,
      "componentType": 5123,
      "count": 117,
      "type": "SCALAR",
      "byteOffset": 1662
    },
    {
      "bufferView": 2,
      "componentType": 5123,
      "count": 117,
      "type": "SCALAR",
      "byteOffset": 1896
    },
    {
      "bufferView": 2,
      "componentType": 5123,
      "count": 21,
      "type": "SCALAR",
      "byteOffset": 2130
    },
    {
      "bufferView": 2,
      "componentType": 5123,
      "count": 177,
      "type": "SCALAR",
      "byteOffset": 2172
    },
    {
      "bufferView": 2,
      "componentType": 5123,
      "count": 306,
      "type": "SCALAR",
      "byteOffset": 2526
    },
    {
      "bufferView": 2,
      "componentType": 5123,
      "count": 63,
      "type": "SCALAR",
      "byteOffset": 3138
    },
    {
      "bufferView": 2,
      "componentType": 5123,
      "count": 108,
      "type": "SCALAR",
      "byteOffset": 3264
    },
    {
      "bufferView": 2,
      "componentType": 5123,
      "count": 357,
      "type": "SCALAR",
      "byteOffset": 3480
    },
    {
      "bufferView": 2,
      "componentType": 5123,
      "count": 57,
      "type": "SCALAR",
      "byteOffset": 4194
    },
    {
      "bufferView": 2,
      "componentType": 5123,
      "count": 150,
      "type": "SCALAR",
      "byteOffset": 4308
    },
    {
      "bufferView": 2,
      "componentType": 5123,
      "count": 21,
      "type": "SCALAR",
      "byteOffset": 4608
    },
    {
      "bufferView": 2,
      "componentType": 5123,
      "count": 339,
      "type": "SCALAR",
      "byteOffset": 4650
    },
    {
      "bufferView": 2,
      "componentType": 5123,
      "count": 216,
      "type": "SCALAR",
      "byteOffset": 5328
    },
    {
      "bufferView": 2,
      "componentType": 5123,
      "count": 354,
      "type": "SCALAR",
      "byteOffset": 5760
    },
    {
      "bufferView": 2,
      "componentType": 5123,
      "count": 390,
      "type": "SCALAR",
      "byteOffset": 6468
    },
    {
      "bufferView": 2,
      "componentType": 5123,
      "count": 63,
      "type": "SCALAR",
      "byteOffset": 7248
    }
  ],
  "bufferViews": [
    {
      "buffer": 0,
      "byteLength": 16932,
      "target": 34962,
      "byteStride": 12
    },
    {
      "buffer": 0,
      "byteOffset": 16932,
      "byteLength": 16932,
      "target": 34962,
      "byteStride": 12
    },
    {
      "buffer": 0,
      "byteOffset": 33864,
      "byteLength": 7374,
      "target": 34963
    }
  ],
  "buffers": [
    {
      "uri": "data:application/octet-stream;base64,",
      "byteLength": 41238
    }
  ]
}